# xmcd CD database file
#
# Track frame offsets:
#	150
#	14350
#	29052
#	43082
#	56609
#	71817
#	84778
#	98025
#	112950
#	128819
#	144261
#	159652
#	174941
#	187510
#	199060
#	212395
#
# Disc length: 3025 seconds
#
# Revision: 0
# Processed by: cddbd v1.5.1PL0 Copyright (c) Steve Scherf et al.
# Submitted via: CDex 1.51
#
DISCID=cc0bcf10
DTITLE=Lena Horne - Great Divas
DYEAR=1900
DGENRE=Blues
TTITLE0=I Didn't Know About You
TTITLE1=Somebody Loves Me
TTITLE2=Can't Help Lovin' Dat Man
TTITLE3=The Lady Is A Tramp
TTITLE4=One For My Baby
TTITLE5=Honeysuckle Rose Room
TTITLE6=You're So Inddifferent
TTITLE7=You're My Thrill
TTITLE8=Out Of Nowhere
TTITLE9=Prisoner Of Love
TTITLE10=Stormy Weather
TTITLE11=The Man I Love
TTITLE12=Where Or When
TTITLE13=I'll Wind
TTITLE14=Mad About The Boy
TTITLE15=I Gotta Right To Sing The Blues
EXTD=
EXTT0=
EXTT1=
EXTT2=
EXTT3=
EXTT4=
EXTT5=
EXTT6=
EXTT7=
EXTT8=
EXTT9=
EXTT10=
EXTT11=
EXTT12=
EXTT13=
EXTT14=
EXTT15=
PLAYORDER=
